<?xml version="1.0" standalone="no"?>
<!DOCTYPE svg PUBLIC "-//W3C//DTD SVG 20010904//EN"
 "http://www.w3.org/TR/2001/REC-SVG-20010904/DTD/svg10.dtd">
<svg version="1.0" xmlns="http://www.w3.org/2000/svg"
 width="260.000000pt" height="260.000000pt" viewBox="0 0 260.000000 260.000000"
 preserveAspectRatio="xMidYMid meet">
<metadata>
Created by potrace 1.14, written by Peter Selinger 2001-2017
</metadata>
<g transform="translate(0.000000,260.000000) scale(0.100000,-0.100000)"
fill="#000000" stroke="none">
<path d="M1150 2593 c-223 -37 -389 -95 -535 -188 -320 -203 -530 -515 -595
-885 -18 -104 -21 -349 -5 -425 21 -99 28 -128 51 -200 61 -192 162 -353 319
-511 178 -178 361 -283 600 -343 128 -33 191 -39 345 -36 238 5 444 64 650
188 103 62 246 189 336 298 130 158 235 401 268 615 28 181 6 454 -48 599 -81
216 -163 351 -305 498 -185 192 -420 320 -686 373 -75 15 -340 27 -395 17z
m359 -127 c109 -26 192 -50 221 -63 142 -63 193 -92 285 -162 396 -301 560
-822 409 -1303 -92 -294 -312 -550 -594 -693 -170 -86 -345 -125 -546 -123
-376 3 -711 175 -936 480 -154 208 -232 449 -229 706 2 123 8 170 33 272 94
388 379 700 763 839 127 46 228 60 405 57 91 -2 176 -6 189 -10z"/>
<path d="M1456 2029 c-110 -26 -246 -135 -299 -239 -75 -147 -66 -331 23 -468
38 -60 38 -60 18 -79 -11 -10 -30 -17 -43 -15 -18 3 -72 -46 -264 -237 -133
-133 -241 -245 -241 -249 0 -11 79 -92 89 -92 5 0 116 108 247 240 199 200
239 245 239 268 1 16 8 37 18 46 16 16 19 15 59 -12 89 -59 166 -83 272 -84
212 0 388 133 450 341 31 106 15 251 -40 352 -31 57 -114 142 -170 175 -96 57
-250 79 -358 53z m267 -143 c69 -34 126 -91 162 -163 27 -51 30 -68 30 -148 0
-80 -3 -97 -30 -149 -83 -163 -253 -235 -428 -180 -47 15 -125 74 -160 122
-62 84 -82 167 -65 264 22 122 98 215 215 264 78 34 197 29 276 -10z"/>
</g>
</svg>
